<svg xmlns="http://www.w3.org/2000/svg" viewBox="0 0 512 512" width="100%" height="100%">
  <rect width="512" height="512" rx="128" fill="#0f172a"/>
  <!-- Minimalist Black & White Car Silhouette -->
  <path d="M128 312 C128 290 156 248 196 226 L316 226 C356 248 384 290 384 312 L412 312 C428 312 440 324 440 340 L440 364 C440 376 430 384 418 384 L94 384 C82 384 72 376 72 364 L72 340 C72 324 84 312 100 312 Z" fill="none" stroke="#ffffff" stroke-width="24" stroke-linecap="round" stroke-linejoin="round"/>
  <!-- Sleek Windshield Canopy -->
  <path d="M188 226 L224 160 C232 148 244 140 260 140 L304 140 C320 140 332 148 340 160 L376 226 Z" fill="none" stroke="#ffffff" stroke-width="20" stroke-linecap="round" stroke-linejoin="round"/>
  <!-- Front & Rear Wheels -->
  <circle cx="156" cy="384" r="36" fill="#0f172a" stroke="#ffffff" stroke-width="20"/>
  <circle cx="156" cy="384" r="12" fill="#ffffff"/>
  <circle cx="356" cy="384" r="36" fill="#0f172a" stroke="#ffffff" stroke-width="20"/>
  <circle cx="356" cy="384" r="12" fill="#ffffff"/>
  <!-- Headlight Accent -->
  <path d="M396 332 L420 332" stroke="#38bdf8" stroke-width="16" stroke-linecap="round"/>
</svg>